<svg xmlns="http://www.w3.org/2000/svg" height="20" viewBox="0 96 960 960" width="20"><path d="m482 447-80-80 53-52H317V203h138l-52-52 79-80 187 188-187 188ZM258.628 983q-32.328 0-54.978-22.876t-22.65-55Q181 873 203.876 850.5t55-22.5Q291 828 313.5 850.728t22.5 54.644q0 32.328-22.728 54.978T258.628 983Zm440.5 0Q667 983 644.5 960.124t-22.5-55Q622 873 644.728 850.5t54.644-22.5Q732 828 754 850.728t22 54.644q0 32.328-22.372 54.978-22.371 22.65-54.5 22.65ZM19 277V165h166l151 351h298.505L743 262h126L731 574q-12 24-33.898 39.5Q675.203 629 647 629H332l-29 48h488v112H270q-55 0-81.5-46.5t.5-92.5l47-80-123-293H19Z"/></svg>